<svg width="36" height="36" viewBox="0 0 36 36" fill="none" xmlns="http://www.w3.org/2000/svg">
<path d="M18.1569 35.0167C27.673 35.0167 35.3873 27.3024 35.3873 17.7863C35.3873 8.27022 27.673 0.555908 18.1569 0.555908C8.64083 0.555908 0.926514 8.27022 0.926514 17.7863C0.926514 27.3024 8.64083 35.0167 18.1569 35.0167Z" fill="#EA4C89"/>
<path fill-rule="evenodd" clip-rule="evenodd" d="M18.1568 0C8.33776 0 0.370605 7.96715 0.370605 17.7862C0.370605 27.6053 8.33776 35.5724 18.1568 35.5724C27.9566 35.5724 35.9431 27.6053 35.9431 17.7862C35.9431 7.96715 27.9566 0 18.1568 0ZM29.905 8.19864C32.027 10.7836 33.3002 14.0824 33.3388 17.6512C32.8372 17.5548 27.8215 16.5323 22.7673 17.1689C22.6516 16.9181 22.5551 16.648 22.4394 16.378C22.1307 15.645 21.7836 14.8926 21.4363 14.1788C27.0306 11.9025 29.577 8.62304 29.905 8.19864ZM18.1568 2.62357C22.015 2.62357 25.5452 4.07039 28.2267 6.44317C27.9566 6.82899 25.6609 9.89624 20.2595 11.9218C17.771 7.34983 15.0124 3.6074 14.588 3.02867C15.7261 2.7586 16.9222 2.62357 18.1568 2.62357ZM11.6944 4.05109C12.0995 4.59124 14.8002 8.35297 17.3273 12.8284C10.2283 14.719 3.95872 14.6804 3.28353 14.6804C4.26737 9.9734 7.45037 6.05734 11.6944 4.05109ZM2.95559 17.8056C2.95559 17.6512 2.95559 17.4969 2.95559 17.3426C3.61148 17.3618 10.9806 17.4583 18.5619 15.182C19.0057 16.0307 19.4108 16.8988 19.7966 17.7669C19.6036 17.8248 19.3914 17.8827 19.1985 17.9405C11.3664 20.4676 7.19959 27.3738 6.85235 27.9525C4.44098 25.2711 2.95559 21.7023 2.95559 17.8056ZM18.1568 32.9874C14.6458 32.9874 11.405 31.7914 8.83932 29.7851C9.10939 29.2258 12.1959 23.2842 20.7611 20.2941C20.7996 20.2747 20.819 20.2747 20.8576 20.2555C22.9988 25.7919 23.867 30.441 24.0984 31.7721C22.2658 32.563 20.2595 32.9874 18.1568 32.9874ZM26.6255 30.3832C26.4712 29.4572 25.6609 25.0203 23.674 19.561C28.4389 18.8086 32.6057 20.0433 33.1266 20.2169C32.4707 24.4416 30.04 28.0876 26.6255 30.3832Z" fill="#C32361"/>
</svg>
