<svg width="36" height="26" viewBox="0 0 36 26" fill="none" xmlns="http://www.w3.org/2000/svg">
<path d="M35.2564 4.10047C35.0553 3.34369 34.6589 2.653 34.107 2.09753C33.5551 1.54206 32.8669 1.14129 32.1115 0.93533C29.3303 0.1875 18.214 0.1875 18.214 0.1875C18.214 0.1875 7.09757 0.1875 4.31645 0.93533C3.56097 1.14129 2.87283 1.54206 2.32091 2.09753C1.76899 2.653 1.37264 3.34369 1.17152 4.10047C0.427734 6.89371 0.427734 12.7187 0.427734 12.7187C0.427734 12.7187 0.427734 18.5437 1.17152 21.3369C1.37264 22.0937 1.76899 22.7844 2.32091 23.3399C2.87283 23.8953 3.56097 24.2961 4.31645 24.5021C7.09757 25.2499 18.214 25.2499 18.214 25.2499C18.214 25.2499 29.3303 25.2499 32.1115 24.5021C32.8669 24.2961 33.5551 23.8953 34.107 23.3399C34.6589 22.7844 35.0553 22.0937 35.2564 21.3369C36.0002 18.5437 36.0002 12.7187 36.0002 12.7187C36.0002 12.7187 36.0002 6.89371 35.2564 4.10047Z" fill="#FF0302"/>
<path d="M14.5757 18.0082V7.42944L23.873 12.7188L14.5757 18.0082Z" fill="#FEFEFE"/>
</svg>
